<?xml version="1.0" encoding="iso-8859-1"?>
<!-- Generator: Adobe Illustrator 19.0.0, SVG Export Plug-In . SVG Version: 6.00 Build 0)  -->
<svg version="1.1" id="Capa_1" xmlns="http://www.w3.org/2000/svg" xmlns:xlink="http://www.w3.org/1999/xlink" x="0px" y="0px"
	 viewBox="0 0 512 512" style="enable-background:new 0 0 512 512;" xml:space="preserve">
<g>
	<g>
		<path d="M416.127,192.537c-2.361-87.108-73.957-157.248-161.624-157.248c-40.274,0-78.862,14.9-108.657,41.953
			c-25.673,23.31-43.021,53.957-49.814,87.53c-24.27,5.219-46.423,17.773-63.563,36.25C11.531,223.598,0,252.997,0,283.804
			c0,30.24,11.139,59.314,31.365,81.866c20.151,22.47,47.6,36.598,77.29,39.781l1.061,0.114h3.064v-38.574l0.133-1.234
			c-0.043-0.005-0.089-0.01-0.133-0.015v-0.1h-0.871c-41.111-4.917-71.986-39.922-71.986-81.84
			c0-42.365,33.031-78.196,75.199-81.571l16.568-1.326l1.697-16.533c6.385-62.233,58.455-109.162,121.117-109.162
			c67.14,0,121.762,54.622,121.762,121.762v34.932h28.943c36.872,0,66.869,29.997,66.869,66.869
			c0,36.872-29.997,66.869-66.869,66.869h-4.99v39.922h4.99c58.885,0,106.791-47.906,106.791-106.791
			C512,243.573,469.905,198.021,416.127,192.537z"/>
	</g>
</g>
<g>
	<g>
		<polygon points="335.345,340.409 275.462,400.292 275.462,201.963 235.54,201.963 235.54,400.292 175.657,340.409 
			147.428,368.638 255.501,476.711 363.574,368.638 		"/>
	</g>
</g>
<g>
</g>
<g>
</g>
<g>
</g>
<g>
</g>
<g>
</g>
<g>
</g>
<g>
</g>
<g>
</g>
<g>
</g>
<g>
</g>
<g>
</g>
<g>
</g>
<g>
</g>
<g>
</g>
<g>
</g>
</svg>
